<mxfile host="Electron" modified="2024-06-29T13:26:11.340Z" agent="Mozilla/5.0 (Windows NT 10.0; Win64; x64) AppleWebKit/537.36 (KHTML, like Gecko) draw.io/22.1.15 Chrome/120.0.6099.109 Electron/28.1.0 Safari/537.36" etag="m4m9TIwTG_-Bd0EBsaWb" version="22.1.15" type="device">
  <diagram name="Страница — 1" id="jalvZomBwcD69yPN_kqk">
    <mxGraphModel dx="1258" dy="697" grid="1" gridSize="10" guides="1" tooltips="1" connect="1" arrows="1" fold="1" page="1" pageScale="1" pageWidth="827" pageHeight="1169" math="0" shadow="0">
      <root>
        <mxCell id="0" />
        <mxCell id="1" parent="0" />
        <mxCell id="CyBXBGic2hE4jjvCa_F8-43" style="edgeStyle=orthogonalEdgeStyle;rounded=0;orthogonalLoop=1;jettySize=auto;html=1;exitX=1;exitY=0.5;exitDx=0;exitDy=0;entryX=0;entryY=0.5;entryDx=0;entryDy=0;startArrow=diamondThin;startFill=1;" edge="1" parent="1" source="CyBXBGic2hE4jjvCa_F8-27" target="CyBXBGic2hE4jjvCa_F8-41">
          <mxGeometry relative="1" as="geometry" />
        </mxCell>
        <mxCell id="CyBXBGic2hE4jjvCa_F8-27" value="Пользователь (User)" style="swimlane;childLayout=stackLayout;horizontal=1;startSize=40;horizontalStack=0;rounded=1;fontSize=14;fontStyle=0;strokeWidth=2;resizeParent=0;resizeLast=1;shadow=0;dashed=0;align=center;arcSize=4;whiteSpace=wrap;html=1;fillColor=#008a00;fontColor=#ffffff;strokeColor=#005700;" vertex="1" parent="1">
          <mxGeometry x="130" y="260" width="210" height="130" as="geometry" />
        </mxCell>
        <mxCell id="CyBXBGic2hE4jjvCa_F8-28" value="+ Идентификатор (user_id)&lt;br&gt;+ Логин (login)&lt;br&gt;+ Пароль (password)&lt;br&gt;+ Аватар (avatar_url)" style="align=left;strokeColor=none;fillColor=none;spacingLeft=4;fontSize=12;verticalAlign=top;resizable=0;rotatable=0;part=1;html=1;" vertex="1" parent="CyBXBGic2hE4jjvCa_F8-27">
          <mxGeometry y="40" width="210" height="90" as="geometry" />
        </mxCell>
        <mxCell id="CyBXBGic2hE4jjvCa_F8-36" value="Пароль (password)" style="swimlane;childLayout=stackLayout;horizontal=1;startSize=40;horizontalStack=0;rounded=1;fontSize=14;fontStyle=0;strokeWidth=2;resizeParent=0;resizeLast=1;shadow=0;dashed=0;align=center;arcSize=4;whiteSpace=wrap;html=1;fillColor=#1ba1e2;fontColor=#ffffff;strokeColor=#006EAF;" vertex="1" parent="1">
          <mxGeometry x="414" y="430" width="230" height="110" as="geometry" />
        </mxCell>
        <mxCell id="CyBXBGic2hE4jjvCa_F8-37" value="+ Хэш-пароля (hash)&lt;br&gt;+ Соль (salt)" style="align=left;strokeColor=none;fillColor=none;spacingLeft=4;fontSize=12;verticalAlign=top;resizable=0;rotatable=0;part=1;html=1;" vertex="1" parent="CyBXBGic2hE4jjvCa_F8-36">
          <mxGeometry y="40" width="230" height="70" as="geometry" />
        </mxCell>
        <mxCell id="CyBXBGic2hE4jjvCa_F8-39" value="" style="edgeStyle=orthogonalEdgeStyle;rounded=0;orthogonalLoop=1;jettySize=auto;html=1;startArrow=diamondThin;startFill=1;strokeWidth=1;exitX=1;exitY=0.75;exitDx=0;exitDy=0;" edge="1" parent="1" source="CyBXBGic2hE4jjvCa_F8-28" target="CyBXBGic2hE4jjvCa_F8-37">
          <mxGeometry relative="1" as="geometry">
            <Array as="points">
              <mxPoint x="380" y="367" />
              <mxPoint x="380" y="495" />
            </Array>
          </mxGeometry>
        </mxCell>
        <mxCell id="CyBXBGic2hE4jjvCa_F8-40" value="Идентификатор Пользователя&lt;br&gt;(user_id)" style="swimlane;childLayout=stackLayout;horizontal=1;startSize=40;horizontalStack=0;rounded=1;fontSize=14;fontStyle=0;strokeWidth=2;resizeParent=0;resizeLast=1;shadow=0;dashed=0;align=center;arcSize=4;whiteSpace=wrap;html=1;fillColor=#1ba1e2;fontColor=#ffffff;strokeColor=#006EAF;" vertex="1" parent="1">
          <mxGeometry x="410" y="20" width="230" height="220" as="geometry" />
        </mxCell>
        <mxCell id="CyBXBGic2hE4jjvCa_F8-41" value="Идентификатор Пользователя&lt;br&gt;сгенерированный с помощью UUID5,&lt;br&gt;использующей name и namespace.&lt;br&gt;В качестве name - логин, namespace&lt;br&gt;- уникальный адрес сущности.&lt;br&gt;С помощью UUID5 упрощается поиск&lt;br&gt;Пользователя по логину, поскольку&lt;br&gt;UUID5(login) и login становятся&lt;br&gt;взаимозаменяемы, причем &lt;br&gt;преобразование&amp;nbsp;одностороннее:&lt;br&gt;login -&amp;gt; UUID5(login)" style="align=left;strokeColor=none;fillColor=none;spacingLeft=4;fontSize=12;verticalAlign=top;resizable=0;rotatable=0;part=1;html=1;" vertex="1" parent="CyBXBGic2hE4jjvCa_F8-40">
          <mxGeometry y="40" width="230" height="180" as="geometry" />
        </mxCell>
        <mxCell id="CyBXBGic2hE4jjvCa_F8-44" value="Логин (login)" style="swimlane;childLayout=stackLayout;horizontal=1;startSize=40;horizontalStack=0;rounded=1;fontSize=14;fontStyle=0;strokeWidth=2;resizeParent=0;resizeLast=1;shadow=0;dashed=0;align=center;arcSize=4;whiteSpace=wrap;html=1;fillColor=#1ba1e2;fontColor=#ffffff;strokeColor=#006EAF;" vertex="1" parent="1">
          <mxGeometry x="414" y="260" width="230" height="130" as="geometry" />
        </mxCell>
        <mxCell id="CyBXBGic2hE4jjvCa_F8-45" value="Строка, состоящая из символов,&amp;nbsp;&lt;br&gt;цифер и знака &quot;_&quot;.&lt;br&gt;Длина: от 5 символов до 32 (как в ТГ)" style="align=left;strokeColor=none;fillColor=none;spacingLeft=4;fontSize=12;verticalAlign=top;resizable=0;rotatable=0;part=1;html=1;" vertex="1" parent="CyBXBGic2hE4jjvCa_F8-44">
          <mxGeometry y="40" width="230" height="90" as="geometry" />
        </mxCell>
        <mxCell id="CyBXBGic2hE4jjvCa_F8-47" style="edgeStyle=orthogonalEdgeStyle;rounded=0;orthogonalLoop=1;jettySize=auto;html=1;startArrow=diamondThin;startFill=1;" edge="1" parent="1" source="CyBXBGic2hE4jjvCa_F8-28" target="CyBXBGic2hE4jjvCa_F8-45">
          <mxGeometry relative="1" as="geometry" />
        </mxCell>
        <mxCell id="CyBXBGic2hE4jjvCa_F8-48" value="Аватар (avatar_url)" style="swimlane;childLayout=stackLayout;horizontal=1;startSize=40;horizontalStack=0;rounded=1;fontSize=14;fontStyle=0;strokeWidth=2;resizeParent=0;resizeLast=1;shadow=0;dashed=0;align=center;arcSize=4;whiteSpace=wrap;html=1;fillColor=#1ba1e2;fontColor=#ffffff;strokeColor=#006EAF;" vertex="1" parent="1">
          <mxGeometry x="120" y="430" width="230" height="110" as="geometry" />
        </mxCell>
        <mxCell id="CyBXBGic2hE4jjvCa_F8-49" value="Ссылка на аватарку пользователя.&lt;br&gt;В перспективе П-ль должен грузить&amp;nbsp;&lt;br&gt;файл и на стороне KC должна&lt;br&gt;создаваться ссылка на этот файл" style="align=left;strokeColor=none;fillColor=none;spacingLeft=4;fontSize=12;verticalAlign=top;resizable=0;rotatable=0;part=1;html=1;" vertex="1" parent="CyBXBGic2hE4jjvCa_F8-48">
          <mxGeometry y="40" width="230" height="70" as="geometry" />
        </mxCell>
        <mxCell id="CyBXBGic2hE4jjvCa_F8-52" style="edgeStyle=orthogonalEdgeStyle;rounded=0;orthogonalLoop=1;jettySize=auto;html=1;startArrow=diamondThin;startFill=1;" edge="1" parent="1" source="CyBXBGic2hE4jjvCa_F8-28" target="CyBXBGic2hE4jjvCa_F8-48">
          <mxGeometry relative="1" as="geometry" />
        </mxCell>
      </root>
    </mxGraphModel>
  </diagram>
</mxfile>
